<svg height="512pt" viewBox="0 0 512 512" width="512pt" xmlns="http://www.w3.org/2000/svg"><path d="m256 0c-140.960938 0-256 115.050781-256 256 0 140.960938 115.050781 256 256 256 140.960938 0 256-115.050781 256-256 0-140.960938-115.050781-256-256-256zm-226 256c0-124.617188 101.382812-226 226-226 56.921875 0 108.988281 21.160156 148.765625 56.019531l-65.863281 65.867188c-9.355469-14.226563-21.46875-26.746094-35.886719-36.765625-33.140625-23.03125-73.382813-29.898438-113.3125-19.335938-45.0625 11.921875-81.457031 48.0625-93.683594 93.082032-10.714843 39.460937-3.824219 80.960937 18.902344 113.855468 10.058594 14.550782 22.644531 26.765625 36.960937 36.183594l-65.863281 65.863281c-34.859375-39.78125-56.019531-91.847656-56.019531-148.769531zm298.726562-51.511719c.679688 3.382813 1.203126 6.808594 1.542969 10.277344 2.582031 26.355469 16.601563 51.457031 39.480469 70.683594 18.273438 15.359375 25.441406 39.65625 18.703125 63.410156-5.316406 18.738281-20.855469 34.277344-39.59375 39.59375-23.75 6.738281-48.042969-.425781-63.402344-18.699219-19.261719-22.914062-44.328125-36.929687-70.582031-39.46875-3.507812-.339844-6.972656-.863281-10.390625-1.554687zm-155.042968 112.617188c-13.335938-7.667969-25.023438-18.332031-34.078125-31.441407-17.953125-25.980468-23.152344-57.566406-14.632813-88.9375 9.378906-34.546874 37.800782-62.785156 72.402344-71.9375 32.160156-8.507812 63.460938-2.449218 88.523438 14.96875 12.996093 9.03125 23.582031 20.664063 31.203124 33.929688zm82.316406 164.894531c-56.921875 0-108.988281-21.160156-148.765625-56.019531l72.945313-72.945313c10.175781 3.640625 20.847656 6.050782 31.808593 7.109375 18.390625 1.777344 36.324219 12.046875 50.503907 28.914063 23.128906 27.515625 59.394531 38.230468 94.558593 28.253906 28.957031-8.214844 52.046875-31.304688 60.265625-60.261719 10.003906-35.273437-.824218-71.507812-28.265625-94.566406-16.839843-14.152344-27.113281-32.136719-28.921875-50.640625-1.066406-10.90625-3.472656-21.527344-7.097656-31.660156l72.949219-72.953125c34.859375 39.78125 56.019531 91.847656 56.019531 148.769531 0 124.617188-101.382812 226-226 226zm0 0"/><path d="m196 151c-24.8125 0-45 20.1875-45 45s20.1875 45 45 45 45-20.1875 45-45-20.1875-45-45-45zm0 60c-8.269531 0-15-6.730469-15-15s6.730469-15 15-15 15 6.730469 15 15-6.730469 15-15 15zm0 0"/></svg>